<svg width="65" height="65" viewBox="0 0 65 65" fill="none" xmlns="http://www.w3.org/2000/svg">
<g opacity="0.12">
<path d="M49.4156 32.9768C55.49 32.9768 59.5834 37.2786 59.5834 43.6526C59.5834 49.3883 54.8786 54.1668 48.5063 54.1668C41.5266 54.1668 36.3691 48.4311 36.3691 39.6699C36.3691 19.7562 50.6304 11.7908 59.5834 10.8335V19.5947C53.5129 20.7096 46.6879 26.922 46.3822 33.7765C46.6879 33.619 47.8989 32.9768 49.4156 32.9768ZM18.467 32.9768C24.5337 32.9768 28.631 37.2786 28.631 43.6526C28.631 49.3883 23.9263 54.1668 17.554 54.1668C10.5742 54.1668 5.41675 48.4311 5.41675 39.6699C5.41675 19.7562 19.6781 11.7908 28.631 10.8335V19.5947C22.5605 20.7096 15.7355 26.922 15.4298 33.7765C15.7355 33.619 16.9465 32.9768 18.467 32.9768Z" fill="#050505"/>
</g>
</svg>
