<svg width="32" height="32" viewBox="0 0 32 32" fill="none" xmlns="http://www.w3.org/2000/svg">
<path d="M16 16H16.0133" stroke="black" stroke-width="1.5" stroke-linecap="round" stroke-linejoin="round"/>
<path d="M21.3334 8.00008V5.33341C21.3334 4.62617 21.0524 3.94789 20.5523 3.4478C20.0522 2.9477 19.3739 2.66675 18.6667 2.66675H13.3334C12.6261 2.66675 11.9478 2.9477 11.4477 3.4478C10.9476 3.94789 10.6667 4.62617 10.6667 5.33341V8.00008" stroke="black" stroke-width="1.5" stroke-linecap="round" stroke-linejoin="round"/>
<path d="M29.3334 17.3333C25.3771 19.9452 20.7408 21.3377 16 21.3377C11.2593 21.3377 6.62296 19.9452 2.66669 17.3333" stroke="black" stroke-width="1.5" stroke-linecap="round" stroke-linejoin="round"/>
<path d="M26.6667 8H5.33335C3.86059 8 2.66669 9.19391 2.66669 10.6667V24C2.66669 25.4728 3.86059 26.6667 5.33335 26.6667H26.6667C28.1394 26.6667 29.3334 25.4728 29.3334 24V10.6667C29.3334 9.19391 28.1394 8 26.6667 8Z" stroke="black" stroke-width="1.5" stroke-linecap="round" stroke-linejoin="round"/>
</svg>
