<svg width="32" height="32" viewBox="0 0 32 32" fill="none" xmlns="http://www.w3.org/2000/svg">
<path d="M28.72 20H22.6667C21.9594 20 21.2811 20.281 20.781 20.781C20.281 21.2811 20 21.9594 20 22.6667V28.72" stroke="black" stroke-width="1.5" stroke-linecap="round" stroke-linejoin="round"/>
<path d="M9.33331 4.45337V6.6667C9.33331 7.72757 9.75474 8.74498 10.5049 9.49513C11.255 10.2453 12.2724 10.6667 13.3333 10.6667C14.0406 10.6667 14.7188 10.9477 15.2189 11.4478C15.719 11.9478 16 12.6261 16 13.3334C16 14.8 17.2 16 18.6666 16C19.3739 16 20.0522 15.7191 20.5523 15.219C21.0524 14.7189 21.3333 14.0406 21.3333 13.3334C21.3333 11.8667 22.5333 10.6667 24 10.6667H28.2266" stroke="black" stroke-width="1.5" stroke-linecap="round" stroke-linejoin="round"/>
<path d="M14.6667 29.2667V24.0001C14.6667 23.2928 14.3857 22.6146 13.8856 22.1145C13.3855 21.6144 12.7072 21.3334 12 21.3334C11.2928 21.3334 10.6145 21.0525 10.1144 20.5524C9.61429 20.0523 9.33334 19.374 9.33334 18.6667V17.3334C9.33334 16.6262 9.05239 15.9479 8.55229 15.4478C8.05219 14.9477 7.37391 14.6667 6.66667 14.6667H2.73334" stroke="black" stroke-width="1.5" stroke-linecap="round" stroke-linejoin="round"/>
<path d="M16 29.3334C23.3638 29.3334 29.3334 23.3639 29.3334 16.0001C29.3334 8.63628 23.3638 2.66675 16 2.66675C8.63622 2.66675 2.66669 8.63628 2.66669 16.0001C2.66669 23.3639 8.63622 29.3334 16 29.3334Z" stroke="black" stroke-width="1.5" stroke-linecap="round" stroke-linejoin="round"/>
</svg>
